<?xml version="1.0" standalone="no"?>
<!DOCTYPE svg PUBLIC "-//W3C//DTD SVG 20010904//EN"
 "http://www.w3.org/TR/2001/REC-SVG-20010904/DTD/svg10.dtd">
<svg version="1.0" xmlns="http://www.w3.org/2000/svg"
 width="354.000000pt" height="264.000000pt" viewBox="0 0 354.000000 264.000000"
 preserveAspectRatio="xMidYMid meet">
<metadata>
Created by potrace 1.15, written by Peter Selinger 2001-2017
</metadata>
<g transform="translate(0.000000,264.000000) scale(0.100000,-0.100000)"
fill="##83b4f5" stroke="none">
<path d="M15 2598 c4 -18 11 -46 16 -63 5 -16 30 -106 54 -200 25 -93 49 -186
55 -205 5 -19 19 -69 30 -110 11 -41 24 -88 29 -105 5 -16 35 -127 66 -245 50
-188 92 -343 125 -460 6 -19 35 -127 65 -240 91 -339 96 -361 125 -465 16 -55
45 -163 65 -240 20 -77 44 -165 53 -195 l17 -55 347 -3 c324 -2 347 -1 352 15
4 15 33 157 63 313 19 97 238 1200 258 1300 14 68 29 128 35 134 11 11 5 37
79 -344 33 -168 76 -381 95 -475 44 -214 186 -933 186 -940 0 -3 155 -5 345
-5 l345 0 6 28 c3 15 19 74 35 132 16 58 34 123 40 145 6 22 15 51 19 65 5 14
29 104 55 200 41 152 103 377 135 490 6 19 35 125 65 235 66 239 75 272 85
305 4 14 17 61 29 105 22 85 103 383 122 450 7 22 16 54 20 70 21 72 87 312
93 337 3 14 9 33 12 42 6 14 -27 16 -338 16 l-344 0 -12 -57 c-6 -32 -32 -166
-57 -298 -25 -132 -50 -258 -55 -280 -5 -22 -19 -92 -30 -155 -12 -63 -39
-207 -61 -320 -22 -113 -60 -308 -84 -435 -58 -301 -68 -345 -75 -345 -3 0
-42 186 -87 413 -97 487 -238 1193 -252 1257 -5 25 -15 72 -21 105 -7 33 -15
71 -19 85 l-8 25 -321 3 -322 2 -5 -22 c-2 -13 -57 -284 -121 -603 -64 -319
-146 -728 -183 -909 -36 -181 -71 -331 -76 -333 -10 -3 -21 50 -106 492 -16
83 -33 173 -39 200 -6 28 -24 122 -41 210 -44 237 -59 315 -69 360 -5 22 -23
112 -39 200 -17 88 -42 214 -54 280 l-24 120 -342 3 -343 2 7 -32z"/>
</g>
</svg>
